<svg width="24" height="25" viewBox="0 0 24 25" fill="none" xmlns="http://www.w3.org/2000/svg">
<g opacity="0.9" clip-path="url(#clip0_2103_111023)">
<path d="M16.3513 0.171875C16.5673 1.63137 15.9703 3.05187 15.1828 4.07187C14.3398 5.15337 12.8878 5.99187 11.4778 5.94687C11.2213 4.55037 11.8798 3.11188 12.6778 2.15188C13.5553 1.08388 15.0628 0.261875 16.3528 0.171875L16.3513 0.171875ZM16.9513 6.17188C18.5563 6.17188 20.2513 7.04638 21.4663 8.55688C17.4913 10.7319 18.1363 16.4019 22.1533 17.9169C21.7353 18.9149 21.2253 19.8649 20.6233 20.7669C19.6318 22.2819 18.2383 24.1569 16.4983 24.1719C15.7843 24.1779 15.3178 23.9649 14.8183 23.7339C14.2333 23.4669 13.6003 23.1774 12.4783 23.1819C11.3623 23.1879 10.7233 23.4744 10.1233 23.7384C9.60579 23.9694 9.12879 24.1809 8.41329 24.1749C6.67329 24.1599 5.35329 22.4649 4.36329 20.9499C1.58829 16.7349 1.30329 11.7699 3.00879 9.14487C4.22529 7.26987 6.14379 6.17487 7.94379 6.17487C8.90529 6.17487 9.68379 6.45087 10.4188 6.71488C11.0893 6.95337 11.7298 7.18287 12.4588 7.18287C13.1278 7.18287 13.6783 6.97437 14.2738 6.74787C14.9953 6.47487 15.7888 6.17487 16.9438 6.17487L16.9513 6.17188Z" fill="black"/>
</g>
<defs>
<clipPath id="clip0_2103_111023">
<rect width="24" height="24" fill="white" transform="translate(0 0.171875)"/>
</clipPath>
</defs>
</svg>
