<svg width="18" height="18" viewBox="0 0 18 18" fill="none" xmlns="http://www.w3.org/2000/svg">
<path d="M8.90968 1.78198C8.20075 1.78198 7.52087 2.0636 7.01958 2.56489C6.5183 3.06617 6.23668 3.74606 6.23668 4.45498C6.23668 5.16391 6.5183 5.84379 7.01958 6.34508C7.52087 6.84636 8.20075 7.12798 8.90968 7.12798C9.6186 7.12798 10.2985 6.84636 10.7998 6.34508C11.3011 5.84379 11.5827 5.16391 11.5827 4.45498C11.5827 3.74606 11.3011 3.06617 10.7998 2.56489C10.2985 2.0636 9.6186 1.78198 8.90968 1.78198ZM4.5019 8.90642C4.47161 9.05135 4.45646 9.20104 4.45646 9.35548V12.474C4.45588 13.1208 4.59645 13.76 4.86838 14.347C5.1403 14.9339 5.53702 15.4545 6.03086 15.8723L5.8785 15.9168C5.42638 16.0381 4.9548 16.0691 4.49068 16.0081C4.02657 15.9471 3.57903 15.7953 3.1736 15.5613C2.76818 15.3273 2.41282 15.0157 2.12782 14.6444C1.84282 14.2731 1.63377 13.8492 1.5126 13.3971L0.936119 11.2453C0.890714 11.0757 0.879149 10.8989 0.902085 10.7249C0.925021 10.5509 0.982009 10.3831 1.06979 10.2311C1.15758 10.0791 1.27444 9.94591 1.41371 9.83909C1.55298 9.73227 1.71192 9.65392 1.88147 9.60853L4.5019 8.90642ZM11.7921 15.8723C12.2859 15.4545 12.6826 14.9339 12.9545 14.347C13.2265 13.76 13.367 13.1208 13.3665 12.474V9.35548C13.3659 9.20104 13.351 9.05135 13.3219 8.90642L15.9415 9.60853C16.2837 9.7004 16.5755 9.92443 16.7526 10.2314C16.9297 10.5383 16.9776 10.903 16.8859 11.2453L16.3094 13.3971C16.1848 13.862 15.9673 14.2969 15.6699 14.6755C15.3726 15.054 15.0017 15.3685 14.5796 15.5998C14.1574 15.8311 13.6928 15.9745 13.2137 16.0213C12.7346 16.0681 12.251 16.0174 11.7921 15.8723ZM14.7012 3.56398C14.1104 3.56398 13.5438 3.79866 13.1261 4.2164C12.7084 4.63414 12.4737 5.20071 12.4737 5.79148C12.4737 6.38225 12.7084 6.94883 13.1261 7.36656C13.5438 7.7843 14.1104 8.01898 14.7012 8.01898C15.2919 8.01898 15.8585 7.7843 16.2763 7.36656C16.694 6.94883 16.9287 6.38225 16.9287 5.79148C16.9287 5.20071 16.694 4.63414 16.2763 4.2164C15.8585 3.79866 15.2919 3.56398 14.7012 3.56398ZM3.11818 3.56398C2.52741 3.56398 1.96083 3.79866 1.5431 4.2164C1.12536 4.63414 0.890678 5.20071 0.890678 5.79148C0.890678 6.38225 1.12536 6.94883 1.5431 7.36656C1.96083 7.7843 2.52741 8.01898 3.11818 8.01898C3.70895 8.01898 4.27552 7.7843 4.69326 7.36656C5.111 6.94883 5.34568 6.38225 5.34568 5.79148C5.34568 5.20071 5.111 4.63414 4.69326 4.2164C4.27552 3.79866 3.70895 3.56398 3.11818 3.56398ZM6.68218 8.01898C6.32772 8.01898 5.98777 8.15979 5.73713 8.41043C5.48649 8.66108 5.34568 9.00102 5.34568 9.35548V12.474C5.34568 13.4192 5.72117 14.3257 6.38955 14.9941C7.05793 15.6625 7.96445 16.038 8.90968 16.038C9.85491 16.038 10.7614 15.6625 11.4298 14.9941C12.0982 14.3257 12.4737 13.4192 12.4737 12.474V9.35548C12.4737 9.00102 12.3329 8.66108 12.0822 8.41043C11.8316 8.15979 11.4916 8.01898 11.1372 8.01898H6.68218Z" fill="white"/>
</svg>
