<svg width="18" height="18" viewBox="0 0 18 18" fill="none" xmlns="http://www.w3.org/2000/svg">
<g opacity="0.5">
<path d="M8.91002 2.22752C8.69063 2.22752 8.47339 2.27073 8.2707 2.35469C8.06801 2.43865 7.88384 2.5617 7.72871 2.71683C7.57358 2.87197 7.45052 3.05613 7.36656 3.25882C7.28261 3.46151 7.23939 3.67875 7.23939 3.89814C7.23939 4.11753 7.28261 4.33478 7.36656 4.53747C7.45052 4.74015 7.57358 4.92432 7.72871 5.07945C7.88384 5.23459 8.06801 5.35764 8.2707 5.4416C8.47339 5.52556 8.69063 5.56877 8.91002 5.56877C9.3531 5.56877 9.77803 5.39276 10.0913 5.07945C10.4046 4.76615 10.5806 4.34122 10.5806 3.89814C10.5806 3.45507 10.4046 3.03014 10.0913 2.71683C9.77803 2.40353 9.3531 2.22752 8.91002 2.22752ZM6.12564 3.89814C6.12564 3.15968 6.419 2.45147 6.94117 1.92929C7.46334 1.40712 8.17156 1.11377 8.91002 1.11377C9.64848 1.11377 10.3567 1.40712 10.8789 1.92929C11.401 2.45147 11.6944 3.15968 11.6944 3.89814C11.6944 4.63661 11.401 5.34482 10.8789 5.86699C10.3567 6.38917 9.64848 6.68252 8.91002 6.68252C8.17156 6.68252 7.46334 6.38917 6.94117 5.86699C6.419 5.34482 6.12564 4.63661 6.12564 3.89814ZM4.45502 9.46689C4.45576 9.26345 4.47655 9.06669 4.51739 8.87661L2.35226 9.45576C2.14031 9.51261 1.94163 9.61067 1.76758 9.74432C1.59353 9.87798 1.44752 10.0446 1.33789 10.2347C1.22825 10.4248 1.15715 10.6347 1.12863 10.8522C1.10011 11.0698 1.11474 11.2909 1.17168 11.5028L1.60382 13.1167C1.72 13.5497 1.92214 13.9549 2.19821 14.3082C2.47427 14.6614 2.81861 14.9555 3.21071 15.1729C3.60281 15.3903 4.03466 15.5266 4.48053 15.5736C4.9264 15.6207 5.37717 15.5775 5.806 15.4466C5.50813 15.1577 5.25209 14.8285 5.04531 14.4687C4.52064 14.5194 3.99501 14.3823 3.56188 14.082C3.12874 13.7816 2.81615 13.3373 2.6797 12.8282L2.24645 11.2133C2.20837 11.0706 2.22851 10.9186 2.30245 10.7908C2.37638 10.663 2.49806 10.5698 2.64072 10.5316L4.45502 10.046V9.46689ZM12.1243 15.4789L12.0129 15.4477C12.3103 15.1582 12.5676 14.8296 12.7747 14.4687C13.2994 14.5194 13.825 14.3823 14.2582 14.082C14.6913 13.7816 15.0039 13.3373 15.1403 12.8282L15.5725 11.2133C15.6106 11.0707 15.5906 10.9189 15.5169 10.7911C15.4432 10.6633 15.3218 10.57 15.1793 10.5316L13.365 10.046V9.46689C13.3643 9.26345 13.3435 9.06669 13.3026 8.87661L15.4667 9.45576C15.6787 9.51249 15.8775 9.61046 16.0517 9.74407C16.2259 9.87767 16.372 10.0443 16.4817 10.2344C16.5915 10.4245 16.6627 10.6344 16.6913 10.852C16.7199 11.0697 16.7053 11.2908 16.6484 11.5028L16.2162 13.1167C15.9865 13.9723 15.4265 14.7017 14.6591 15.1444C13.8918 15.5872 12.98 15.7082 12.1243 15.4789ZM2.22752 5.56877C2.22752 5.27338 2.34486 4.9901 2.55373 4.78123C2.7626 4.57236 3.04588 4.45502 3.34127 4.45502C3.63665 4.45502 3.91994 4.57236 4.12881 4.78123C4.33768 4.9901 4.45502 5.27338 4.45502 5.56877C4.45502 5.86415 4.33768 6.14744 4.12881 6.35631C3.91994 6.56518 3.63665 6.68252 3.34127 6.68252C3.04588 6.68252 2.7626 6.56518 2.55373 6.35631C2.34486 6.14744 2.22752 5.86415 2.22752 5.56877ZM3.34127 3.34127C2.7505 3.34127 2.18393 3.57595 1.76619 3.99369C1.34845 4.41143 1.11377 4.978 1.11377 5.56877C1.11377 6.15954 1.34845 6.72611 1.76619 7.14385C2.18393 7.56159 2.7505 7.79627 3.34127 7.79627C3.93204 7.79627 4.49861 7.56159 4.91635 7.14385C5.33409 6.72611 5.56877 6.15954 5.56877 5.56877C5.56877 4.978 5.33409 4.41143 4.91635 3.99369C4.49861 3.57595 3.93204 3.34127 3.34127 3.34127ZM14.4788 4.45502C14.1834 4.45502 13.9001 4.57236 13.6912 4.78123C13.4824 4.9901 13.365 5.27338 13.365 5.56877C13.365 5.86415 13.4824 6.14744 13.6912 6.35631C13.9001 6.56518 14.1834 6.68252 14.4788 6.68252C14.7742 6.68252 15.0574 6.56518 15.2663 6.35631C15.4752 6.14744 15.5925 5.86415 15.5925 5.56877C15.5925 5.27338 15.4752 4.9901 15.2663 4.78123C15.0574 4.57236 14.7742 4.45502 14.4788 4.45502ZM12.2513 5.56877C12.2513 4.978 12.486 4.41143 12.9037 3.99369C13.3214 3.57595 13.888 3.34127 14.4788 3.34127C15.0695 3.34127 15.6361 3.57595 16.0538 3.99369C16.4716 4.41143 16.7063 4.978 16.7063 5.56877C16.7063 6.15954 16.4716 6.72611 16.0538 7.14385C15.6361 7.56159 15.0695 7.79627 14.4788 7.79627C13.888 7.79627 13.3214 7.56159 12.9037 7.14385C12.486 6.72611 12.2513 6.15954 12.2513 5.56877ZM7.23939 7.79627C6.79632 7.79627 6.37139 7.97228 6.05808 8.28558C5.74478 8.59889 5.56877 9.02382 5.56877 9.46689V12.2513C5.56877 13.1374 5.92079 13.9873 6.5474 14.6139C7.17401 15.2405 8.02386 15.5925 8.91002 15.5925C9.79617 15.5925 10.646 15.2405 11.2726 14.6139C11.8992 13.9873 12.2513 13.1374 12.2513 12.2513V9.46689C12.2513 9.02382 12.0753 8.59889 11.762 8.28558C11.4487 7.97228 11.0237 7.79627 10.5806 7.79627H7.23939ZM6.68252 9.46689C6.68252 9.3192 6.74119 9.17756 6.84562 9.07312C6.95006 8.96869 7.0917 8.91002 7.23939 8.91002H10.5806C10.7283 8.91002 10.87 8.96869 10.9744 9.07312C11.0788 9.17756 11.1375 9.3192 11.1375 9.46689V12.2513C11.1375 12.842 10.9028 13.4086 10.4851 13.8263C10.0674 14.2441 9.50079 14.4788 8.91002 14.4788C8.31925 14.4788 7.75268 14.2441 7.33494 13.8263C6.9172 13.4086 6.68252 12.842 6.68252 12.2513V9.46689Z" fill="black"/>
</g>
</svg>
