<svg width="24" height="25" viewBox="0 0 24 25" fill="none" xmlns="http://www.w3.org/2000/svg">
<g clip-path="url(#clip0_2103_111016)">
<path d="M8.35909 0.961796C5.96112 1.79367 3.89311 3.37261 2.45882 5.46667C1.02454 7.56074 0.299573 10.0596 0.390418 12.5961C0.481264 15.1326 1.38313 17.5732 2.96355 19.5593C4.54396 21.5454 6.71962 22.9723 9.17096 23.6305C11.1583 24.1434 13.2405 24.1659 15.2385 23.6962C17.0484 23.2896 18.7218 22.42 20.0947 21.1724C21.5236 19.8343 22.5608 18.1321 23.0947 16.2487C23.6751 14.2006 23.7783 12.0467 23.3966 9.95242H12.2366V14.5818H18.6997C18.5705 15.3201 18.2937 16.0249 17.8859 16.6537C17.478 17.2826 16.9474 17.8227 16.326 18.2418C15.5367 18.7639 14.6471 19.1151 13.7141 19.273C12.7784 19.447 11.8186 19.447 10.8828 19.273C9.93444 19.077 9.03727 18.6855 8.24846 18.1237C6.98124 17.2266 6.02973 15.9523 5.52971 14.4824C5.02124 12.985 5.02124 11.3617 5.52971 9.8643C5.88564 8.8147 6.47403 7.85905 7.25096 7.06867C8.14007 6.14757 9.26571 5.48916 10.5044 5.16569C11.743 4.84221 13.0469 4.86617 14.2728 5.23492C15.2305 5.5289 16.1063 6.04255 16.8303 6.73492C17.5591 6.00992 18.2866 5.28305 19.0128 4.5543C19.3878 4.16242 19.7966 3.7893 20.166 3.38805C19.0608 2.35956 17.7635 1.55928 16.3485 1.03305C13.7717 0.0974017 10.9522 0.0722572 8.35909 0.961796Z" fill="white"/>
<path d="M8.35875 0.962707C10.9516 0.0725638 13.7711 0.0970465 16.3481 1.03208C17.7634 1.56189 19.0601 2.36603 20.1637 3.39833C19.7887 3.79958 19.3931 4.17458 19.0106 4.56458C18.2831 5.29083 17.5562 6.01458 16.83 6.73583C16.106 6.04346 15.2302 5.52982 14.2725 5.23583C13.047 4.86578 11.7432 4.84045 10.5042 5.1626C9.26516 5.48475 8.13883 6.14195 7.24875 7.06208C6.47181 7.85246 5.88342 8.80811 5.5275 9.85771L1.64062 6.84833C3.03189 4.08938 5.44078 1.979 8.35875 0.962707Z" fill="#E33629"/>
<path d="M0.611401 9.825C0.820316 8.78961 1.16716 7.78692 1.64265 6.84375L5.52953 9.86063C5.02105 11.358 5.02105 12.9814 5.52953 14.4788C4.23453 15.4788 2.9389 16.4838 1.64265 17.4938C0.452308 15.1243 0.0892746 12.4247 0.611401 9.825Z" fill="#F8BD00"/>
<path d="M12.2391 9.95312H23.3991C23.7809 12.0474 23.6776 14.2013 23.0972 16.2494C22.5633 18.1328 21.5261 19.835 20.0972 21.1731C18.8429 20.1944 17.5829 19.2231 16.3285 18.2444C16.9504 17.8249 17.4812 17.2842 17.8891 16.6546C18.297 16.0251 18.5735 15.3196 18.7022 14.5806H12.2391C12.2372 13.0394 12.2391 11.4962 12.2391 9.95312Z" fill="#587DBD"/>
<path d="M1.64062 17.4994C2.93687 16.4994 4.2325 15.4944 5.5275 14.4844C6.02851 15.9547 6.98138 17.2292 8.25 18.1256C9.04127 18.6849 9.94037 19.0731 10.89 19.2656C11.8257 19.4396 12.7855 19.4396 13.7213 19.2656C14.6542 19.1077 15.5439 18.7564 16.3331 18.2344C17.5875 19.2131 18.8475 20.1844 20.1019 21.1631C18.7292 22.4114 17.0558 23.2817 15.2456 23.6888C13.2476 24.1585 11.1655 24.1359 9.17813 23.6231C7.60632 23.2034 6.13814 22.4636 4.86563 21.45C3.51874 20.3807 2.41867 19.0331 1.64062 17.4994Z" fill="#319F43"/>
</g>
<defs>
<clipPath id="clip0_2103_111016">
<rect width="24" height="24" fill="white" transform="translate(0 0.171875)"/>
</clipPath>
</defs>
</svg>
