<svg width="18" height="18" viewBox="0 0 18 18" fill="none" xmlns="http://www.w3.org/2000/svg">
<path d="M14.8882 4.89904L10.609 2.00415C9.44258 1.21399 7.65215 1.25709 6.53035 2.09754L2.80834 4.90622C2.06542 5.46652 1.47852 6.61585 1.47852 7.52095V12.4775C1.47852 14.3092 3.01635 15.8033 4.91079 15.8033H12.9194C14.8139 15.8033 16.3517 14.3164 16.3517 12.4846V7.61434C16.3517 6.64459 15.7054 5.45215 14.8882 4.89904ZM9.4723 12.93C9.4723 13.2245 9.21971 13.4688 8.91511 13.4688C8.61052 13.4688 8.35792 13.2245 8.35792 12.93V10.775C8.35792 10.4805 8.61052 10.2363 8.91511 10.2363C9.21971 10.2363 9.4723 10.4805 9.4723 10.775V12.93Z" fill="white"/>
</svg>
