<svg width="35" height="32" viewBox="0 0 35 32" fill="none" xmlns="http://www.w3.org/2000/svg">
<path d="M31.5346 16.4425C31.4241 16.3216 31.3627 16.1638 31.3627 16C31.3627 15.8362 31.4241 15.6784 31.5346 15.5575L34.5222 12.2487C34.6119 12.1506 34.6697 12.0275 34.6878 11.8958C34.706 11.7641 34.6837 11.63 34.6238 11.5112L30.1727 2.578C30.1256 2.48078 30.0552 2.39673 29.9677 2.3333C29.8803 2.26988 29.7785 2.22905 29.6714 2.21445C29.5644 2.19985 29.4554 2.21194 29.3542 2.24963C29.2529 2.28732 29.1626 2.34946 29.0911 2.43051L24.4762 7.54201C24.4147 7.61176 24.339 7.66763 24.2542 7.70589C24.1695 7.74416 24.0775 7.76395 23.9845 7.76395C23.8915 7.76395 23.7996 7.74416 23.7148 7.70589C23.6301 7.66763 23.5544 7.61176 23.4929 7.54201L22.1818 6.08673C22.0708 5.96579 22.0092 5.8076 22.0092 5.64343C22.0092 5.47926 22.0708 5.32106 22.1818 5.20012L25.8888 1.10305C25.9768 1.00891 26.0351 0.890942 26.0564 0.763881C26.0777 0.636821 26.061 0.506304 26.0086 0.388633C25.9561 0.270963 25.8702 0.171356 25.7614 0.102259C25.6527 0.0331611 25.526 -0.00236294 25.3972 0.000122H9.29408C9.16527 -0.00236294 9.03859 0.0331611 8.92985 0.102259C8.82112 0.171356 8.73515 0.270963 8.6827 0.388633C8.63024 0.506304 8.61362 0.636821 8.63492 0.763881C8.65621 0.890942 8.71448 1.00891 8.80243 1.10305L12.5111 5.20012C12.6221 5.32106 12.6837 5.47926 12.6837 5.64343C12.6837 5.8076 12.6221 5.96579 12.5111 6.08673L11.2 7.54201C11.1385 7.61176 11.0629 7.66763 10.9781 7.70589C10.8933 7.74416 10.8014 7.76395 10.7084 7.76395C10.6154 7.76395 10.5234 7.74416 10.4387 7.70589C10.3539 7.66763 10.2783 7.61176 10.2167 7.54201L5.60344 2.43051C5.53203 2.3491 5.44158 2.28664 5.34015 2.24873C5.23872 2.21081 5.12948 2.19862 5.02218 2.21323C4.91489 2.22784 4.81288 2.2688 4.72528 2.33245C4.63768 2.3961 4.56721 2.48046 4.52018 2.578L0.070754 11.5112C0.0106892 11.6298 -0.0119117 11.7638 0.00594205 11.8955C0.0237958 12.0273 0.0812632 12.1504 0.170725 12.2487L3.15995 15.5575C3.2705 15.6784 3.33182 15.8362 3.33182 16C3.33182 16.1638 3.2705 16.3216 3.15995 16.4425L0.170725 19.7513C0.0812632 19.8496 0.0237958 19.9727 0.00594205 20.1045C-0.0119117 20.2362 0.0106892 20.3702 0.070754 20.4888L4.52018 29.4204C4.56706 29.518 4.6374 29.6025 4.72492 29.6663C4.81245 29.7302 4.91442 29.7713 5.02173 29.7861C5.12903 29.8008 5.23833 29.7888 5.33984 29.751C5.44135 29.7132 5.53192 29.6508 5.60344 29.5695L10.2184 24.458C10.2799 24.3882 10.3555 24.3324 10.4403 24.2941C10.5251 24.2558 10.617 24.2361 10.71 24.2361C10.803 24.2361 10.895 24.2558 10.9797 24.2941C11.0645 24.3324 11.1402 24.3882 11.2017 24.458L12.5127 25.9133C12.6238 26.0342 12.6854 26.1924 12.6854 26.3566C12.6854 26.5207 12.6238 26.6789 12.5127 26.7999L8.80407 30.8969C8.71612 30.9911 8.65786 31.1091 8.63656 31.2361C8.61526 31.3632 8.63188 31.4937 8.68434 31.6114C8.73679 31.729 8.82275 31.8286 8.93149 31.8977C9.04022 31.9668 9.16691 32.0024 9.29572 31.9999H25.3988C25.5276 32.0024 25.6543 31.9668 25.7631 31.8977C25.8718 31.8286 25.9578 31.729 26.0102 31.6114C26.0627 31.4937 26.0793 31.3632 26.058 31.2361C26.0367 31.1091 25.9784 30.9911 25.8905 30.8969L22.1835 26.7999C22.0724 26.6789 22.0108 26.5207 22.0108 26.3566C22.0108 26.1924 22.0724 26.0342 22.1835 25.9133L23.4945 24.458C23.556 24.3882 23.6317 24.3324 23.7165 24.2941C23.8012 24.2558 23.8932 24.2361 23.9862 24.2361C24.0792 24.2361 24.1711 24.2558 24.2559 24.2941C24.3406 24.3324 24.4163 24.3882 24.4778 24.458L29.0928 29.5695C29.1643 29.6505 29.2548 29.7125 29.3561 29.7501C29.4574 29.7877 29.5665 29.7996 29.6735 29.7848C29.7806 29.7701 29.8823 29.7291 29.9697 29.6655C30.0571 29.6019 30.1274 29.5177 30.1744 29.4204L34.6254 20.4888C34.6853 20.37 34.7076 20.2359 34.6895 20.1042C34.6713 19.9725 34.6136 19.8494 34.5238 19.7513L31.5346 16.4425ZM20.1398 20.9771C20.1397 21.0661 20.1259 21.1545 20.0989 21.2393C20.0429 21.4124 19.9333 21.5631 19.786 21.6697C19.6387 21.7764 19.4613 21.8334 19.2795 21.8326H15.4085C15.2269 21.8335 15.0496 21.7767 14.9024 21.6704C14.7551 21.5641 14.6454 21.4137 14.5891 21.241C14.5613 21.1558 14.5475 21.0667 14.5482 20.9771V11.0229C14.5475 10.9333 14.5613 10.8442 14.5891 10.759C14.6454 10.5863 14.7551 10.4359 14.9024 10.3296C15.0496 10.2233 15.2269 10.1665 15.4085 10.1674H19.2827C19.4646 10.1666 19.642 10.2236 19.7893 10.3303C19.9366 10.4369 20.0462 10.5876 20.1021 10.7607C20.1292 10.8455 20.143 10.9339 20.1431 11.0229L20.1398 20.9771Z" fill="#1C6206"/>
</svg>
