<svg width="18" height="18" viewBox="0 0 18 18" fill="none" xmlns="http://www.w3.org/2000/svg">
<path d="M12.8937 4.79285H3.63178C3.45632 4.79285 3.28805 4.86255 3.16398 4.98662C3.03992 5.11068 2.97021 5.27896 2.97021 5.45441V14.0548C2.97021 14.2303 3.03992 14.3985 3.16398 14.5226C3.28805 14.6467 3.45632 14.7164 3.63178 14.7164H12.8937C13.0692 14.7164 13.2375 14.6467 13.3615 14.5226C13.4856 14.3985 13.5553 14.2303 13.5553 14.0548V5.45441C13.5553 5.27896 13.4856 5.11068 13.3615 4.98662C13.2375 4.86255 13.0692 4.79285 12.8937 4.79285Z" fill="white" stroke="white" stroke-linecap="round" stroke-linejoin="round"/>
<path d="M5.94727 6.11596V3.80047C5.94727 3.4964 6.00716 3.1953 6.12352 2.91437C6.23989 2.63345 6.41044 2.37819 6.62546 2.16318C6.84047 1.94816 7.09573 1.77761 7.37665 1.66124C7.65758 1.54488 7.95868 1.48499 8.26275 1.48499C8.56683 1.48499 8.86792 1.54488 9.14885 1.66124C9.42978 1.77761 9.68504 1.94816 9.90005 2.16318C10.1151 2.37819 10.2856 2.63345 10.402 2.91437C10.5183 3.1953 10.5782 3.4964 10.5782 3.80047V6.11596" stroke="white" stroke-linecap="round" stroke-linejoin="round"/>
</svg>
