<svg width="18" height="18" viewBox="0 0 18 18" fill="none" xmlns="http://www.w3.org/2000/svg">
<path d="M1.49658 3.74125C1.49658 3.32746 1.8318 2.993 2.24483 2.993H11.9721C12.3851 2.993 12.7203 3.32746 12.7203 3.74125C12.7203 4.15503 12.3851 4.4895 11.9721 4.4895H2.24483C1.8318 4.4895 1.49658 4.15503 1.49658 3.74125ZM15.7133 8.23075H2.24483C1.8318 8.23075 1.49658 8.56521 1.49658 8.979C1.49658 9.39278 1.8318 9.72725 2.24483 9.72725H15.7133C16.1264 9.72725 16.4616 9.39278 16.4616 8.979C16.4616 8.56521 16.1264 8.23075 15.7133 8.23075ZM8.97908 13.4685H2.24483C1.8318 13.4685 1.49658 13.803 1.49658 14.2167C1.49658 14.6305 1.8318 14.965 2.24483 14.965H8.97908C9.39212 14.965 9.72733 14.6305 9.72733 14.2167C9.72733 13.803 9.39212 13.4685 8.97908 13.4685Z" fill="#333333"/>
</svg>
