<svg width="18" height="18" viewBox="0 0 18 18" fill="none" xmlns="http://www.w3.org/2000/svg">
<path fill-rule="evenodd" clip-rule="evenodd" d="M8.79339 16.0806C6.0528 16.0806 3.7124 15.6541 3.7124 13.9462C3.7124 12.2382 6.03795 10.6615 8.79339 10.6615C11.534 10.6615 13.8744 12.2229 13.8744 13.9309C13.8744 15.6381 11.5488 16.0806 8.79339 16.0806Z" stroke="black" stroke-opacity="0.5" stroke-width="1.11351" stroke-linecap="round" stroke-linejoin="round"/>
<path fill-rule="evenodd" clip-rule="evenodd" d="M8.78763 8.29471C10.5861 8.29471 12.0438 6.83702 12.0438 5.03853C12.0438 3.24004 10.5861 1.78168 8.78763 1.78168C6.98914 1.78168 5.53078 3.24004 5.53078 5.03853C5.52471 6.83095 6.97227 8.28863 8.76469 8.29471C8.77279 8.29471 8.78021 8.29471 8.78763 8.29471Z" stroke="black" stroke-opacity="0.5" stroke-width="1.11351" stroke-linecap="round" stroke-linejoin="round"/>
</svg>
