<svg width="18" height="18" viewBox="0 0 18 18" fill="none" xmlns="http://www.w3.org/2000/svg">
<path fill-rule="evenodd" clip-rule="evenodd" d="M8.90859 7.05231C9.93367 7.05231 10.7644 7.88308 10.7644 8.90816C10.7644 9.93324 9.93367 10.764 8.90859 10.764C7.8835 10.764 7.05273 9.93324 7.05273 8.90816C7.05273 7.88308 7.8835 7.05231 8.90859 7.05231Z" stroke="black" stroke-opacity="0.5" stroke-width="1.11351" stroke-linecap="round" stroke-linejoin="round"/>
<path fill-rule="evenodd" clip-rule="evenodd" d="M14.972 5.3822V5.3822C14.4645 4.49714 13.3412 4.1943 12.4632 4.70539C11.6996 5.14902 10.7451 4.59393 10.7451 3.70594C10.7451 2.68449 9.92248 1.8559 8.90836 1.8559V1.8559C7.89423 1.8559 7.07158 2.68449 7.07158 3.70594C7.07158 4.59393 6.11716 5.14902 5.3542 4.70539C4.47549 4.1943 3.35216 4.49714 2.84474 5.3822C2.33804 6.26726 2.63871 7.3987 3.51742 7.90905C4.28038 8.35342 4.28038 9.46286 3.51742 9.90722C2.63871 10.4183 2.33804 11.5497 2.84474 12.4341C3.35216 13.3191 4.47549 13.622 5.35347 13.1116H5.3542C6.11716 12.6673 7.07158 13.2223 7.07158 14.1103V14.1103C7.07158 15.1318 7.89423 15.9604 8.90836 15.9604V15.9604C9.92248 15.9604 10.7451 15.1318 10.7451 14.1103V14.1103C10.7451 13.2223 11.6996 12.6673 12.4632 13.1116C13.3412 13.622 14.4645 13.3191 14.972 12.4341C15.4794 11.5497 15.178 10.4183 14.3 9.90722H14.2993C13.5363 9.46286 13.5363 8.35342 14.3 7.90905C15.178 7.3987 15.4794 6.26726 14.972 5.3822Z" stroke="black" stroke-opacity="0.5" stroke-width="1.11351" stroke-linecap="round" stroke-linejoin="round"/>
</svg>
